<?xml version="1.0" standalone="no"?>
<!DOCTYPE svg PUBLIC "-//W3C//DTD SVG 20010904//EN"
 "http://www.w3.org/TR/2001/REC-SVG-20010904/DTD/svg10.dtd">
<svg version="1.0" xmlns="http://www.w3.org/2000/svg"
 width="512.000000pt" height="512.000000pt" viewBox="0 0 512.000000 512.000000"
 preserveAspectRatio="xMidYMid meet">
<metadata>
Created by potrace 1.11, written by Peter Selinger 2001-2013
</metadata>
<g transform="translate(0.000000,512.000000) scale(0.100000,-0.100000)"
fill="#000000" stroke="none">
<path d="M2365 5114 c-653 -67 -1178 -309 -1614 -745 -405 -406 -649 -902
-733 -1494 -17 -118 -17 -512 0 -630 84 -592 328 -1088 733 -1494 394 -393
884 -640 1449 -728 162 -25 558 -25 720 0 573 90 1059 334 1452 728 396 398
635 877 725 1449 25 162 25 558 0 720 -88 565 -335 1055 -728 1449 -396 395
-882 639 -1449 726 -101 15 -468 28 -555 19z m1905 -1256 c33 -17 51 -35 68
-68 l22 -45 -2 -1195 -3 -1195 -23 -37 c-13 -21 -40 -45 -66 -57 -42 -21 -44
-21 -1706 -21 -1662 0 -1664 0 -1706 21 -26 12 -53 36 -66 57 l-23 37 -3 1195
-2 1195 22 45 c17 33 35 51 68 68 l44 22 1666 0 1666 0 44 -22z"/>
<path d="M936 3761 c-39 -26 -55 -57 -56 -108 0 -78 76 -133 154 -112 99 27
118 162 30 220 -16 10 -45 19 -64 19 -19 0 -48 -9 -64 -19z"/>
<path d="M1299 3757 c-18 -12 -39 -34 -46 -47 -40 -78 18 -170 107 -170 89 0
147 92 107 170 -16 33 -73 70 -107 70 -15 0 -42 -10 -61 -23z"/>
<path d="M1674 3771 c-37 -16 -74 -70 -74 -107 0 -73 49 -124 120 -124 71 0
120 51 120 125 0 51 -51 105 -105 110 -22 3 -49 1 -61 -4z"/>
<path d="M2671 3048 c-6 -18 -42 -141 -81 -273 -39 -132 -125 -422 -191 -644
-65 -222 -119 -407 -119 -412 0 -6 42 -8 96 -7 l97 3 198 670 c109 369 198
676 199 683 0 9 -25 12 -94 12 l-94 0 -11 -32z"/>
<path d="M1910 2764 c-124 -58 -327 -152 -452 -211 l-228 -106 0 -81 0 -81
453 -211 452 -210 3 100 c2 73 -1 102 -10 107 -7 5 -160 73 -340 151 -188 82
-322 146 -315 150 7 4 159 72 339 150 l328 143 0 103 c0 56 -1 102 -2 102 -2
-1 -104 -48 -228 -106z"/>
<path d="M2980 2768 l0 -103 338 -144 c185 -79 340 -147 345 -151 4 -3 -148
-73 -338 -154 l-345 -148 0 -103 0 -103 198 90 c108 50 312 144 452 208 l255
117 3 87 3 87 -93 44 c-128 60 -745 344 -785 361 l-33 14 0 -102z"/>
</g>
</svg>
